# xmcd CD database file
#
# Track frame offsets:
#	150
#	19147
#	35675
#	61976
#	90168
#	110951
#	132696
#	156804
#	185242
#	209795
#	232694
#	257250
#	280261
#	304087
#
# Disc length: 4381 seconds
#
# Revision: 0
# Processed by: cddbd v1.5.1PL0 Copyright (c) Steve Scherf et al.
# Submitted via: CDex 1.50beta9
#
DISCID=c8111b0e
DTITLE=diverse - caribe v aniversario
DYEAR=1900
DGENRE=Salsa
TTITLE0=el saxofon
TTITLE1=guaguanco
TTITLE2=gente de barrio
TTITLE3=rumba sin alarde
TTITLE4=esta es mi mecanica
TTITLE5=una aventura loca
TTITLE6=locura en mi cintura
TTITLE7=yo siempre tengo lo que tu necesitas
TTITLE8=mi salsa tiene sandunga
TTITLE9=sagitario
TTITLE10=son a emiliano
TTITLE11=que sorpresa
TTITLE12=a lusia
TTITLE13=a bailar el toca toca
EXTD=
EXTT0=
EXTT1=
EXTT2=
EXTT3=
EXTT4=
EXTT5=
EXTT6=
EXTT7=
EXTT8=
EXTT9=
EXTT10=
EXTT11=
EXTT12=
EXTT13=
PLAYORDER=
